<svg width="64" height="64" viewBox="0 0 64 64" fill="none" xmlns="http://www.w3.org/2000/svg">
<path d="M56.82 29.915C55.4266 28.8601 53.7276 28.2879 51.98 28.285H12.01C10.3913 28.2805 8.81024 28.7727 7.48001 29.695C6.40565 30.4302 5.52707 31.4166 4.9206 32.5686C4.31413 33.7205 3.99811 35.0031 4.00001 36.305V40.955H60V36.305C60.0041 35.0658 59.7188 33.8428 59.1667 32.7334C58.6146 31.624 57.811 30.6589 56.82 29.915ZM51.98 26.2849C53.0335 26.2834 54.0804 26.4523 55.08 26.7849C55.7814 27.0054 56.453 27.311 57.08 27.6949V19.5849C57.0769 18.1697 56.5133 16.8132 55.5125 15.8124C54.5117 14.8117 53.1553 14.2481 51.74 14.2449H47.93C46.983 14.2435 46.049 14.0246 45.2 13.6049L37.48 9.71495C35.5834 8.78065 33.4877 8.32244 31.3742 8.37994C29.2607 8.43743 27.193 9.00891 25.35 10.0449L19.6 13.3349C18.6791 13.8574 17.6388 14.133 16.58 14.1349H12.25C10.8347 14.1381 9.47828 14.7017 8.47751 15.7024C7.47674 16.7032 6.91313 18.0597 6.91001 19.4749V27.6849C7.53847 27.3064 8.20989 27.0043 8.91001 26.7849C9.90964 26.4523 10.9565 26.2834 12.01 26.2849H13.91V22.5649C13.861 21.8806 14.0831 21.2044 14.5284 20.6824C14.9737 20.1603 15.6065 19.8344 16.29 19.7749H26.31C26.6509 19.7992 26.9835 19.8908 27.2887 20.0446C27.5939 20.1984 27.8655 20.4112 28.0878 20.6707C28.3101 20.9302 28.4787 21.2313 28.5838 21.5564C28.6889 21.8816 28.7284 22.2244 28.7 22.5649V26.2849H35.02V22.1949C34.9895 21.8514 35.0272 21.5051 35.1309 21.1762C35.2347 20.8472 35.4024 20.542 35.6245 20.278C35.8466 20.0141 36.1187 19.7967 36.4251 19.6383C36.7316 19.4799 37.0663 19.3836 37.41 19.3549H47.43C47.7729 19.3847 48.1066 19.4819 48.4119 19.6408C48.7172 19.7997 48.9882 20.0173 49.2093 20.2811C49.4303 20.545 49.5972 20.8498 49.7003 21.1782C49.8034 21.5066 49.8407 21.8521 49.81 22.1949V26.2849H51.98Z" fill="#184DC1"/>
<path d="M16.29 21.7751C16.18 21.7751 15.91 22.0751 15.91 22.5651V26.2851H26.7V22.5651C26.7 22.0851 26.44 21.7751 26.31 21.7751H16.29ZM37.41 21.355C37.29 21.355 37.02 21.675 37.02 22.195V26.285H47.81V22.195C47.81 21.655 47.52 21.355 47.43 21.355H37.41ZM4 52.285C4 53.1668 4.35031 54.0125 4.97387 54.6361C5.59743 55.2597 6.44316 55.61 7.325 55.61C8.20684 55.61 9.05257 55.2597 9.67613 54.6361C10.2997 54.0125 10.65 53.1668 10.65 52.285V50.265C10.6521 50.2427 10.6625 50.2221 10.6792 50.2072C10.6959 50.1924 10.7177 50.1844 10.74 50.185H53.47C53.4805 50.1848 53.491 50.1868 53.5008 50.1908C53.5106 50.1947 53.5194 50.2006 53.5269 50.2081C53.5344 50.2155 53.5402 50.2244 53.5442 50.2342C53.5482 50.244 53.5502 50.2544 53.55 50.265V52.345C53.5509 52.7673 53.6353 53.1853 53.7983 53.5749C53.9613 53.9644 54.1998 54.3179 54.5 54.615C54.9036 55.0149 55.405 55.302 55.9542 55.4477C56.5035 55.5933 57.0813 55.5924 57.63 55.445C58.3246 55.2377 58.9323 54.8089 59.3602 54.2238C59.7882 53.6388 60.0129 52.9298 60 52.2051V42.9551H4V52.285Z" fill="#184DC1"/>
</svg>
