<svg width="24" height="24" viewBox="0 0 24 24" fill="none" xmlns="http://www.w3.org/2000/svg">
<path d="M19 6.25H16.75V5C16.75 3.483 15.517 2.25 14 2.25H10C8.483 2.25 7.25 3.483 7.25 5V6.25H5C3.483 6.25 2.25 7.483 2.25 9V19C2.25 20.517 3.483 21.75 5 21.75H19C20.517 21.75 21.75 20.517 21.75 19V9C21.75 7.483 20.517 6.25 19 6.25ZM8.75 5C8.75 4.311 9.311 3.75 10 3.75H14C14.689 3.75 15.25 4.311 15.25 5V6.25H8.75V5ZM19 20.25H5C4.311 20.25 3.75 19.689 3.75 19V13.446C4.601 14.249 5.74 14.75 7 14.75H10C10.414 14.75 10.75 14.414 10.75 14C10.75 13.586 10.414 13.25 10 13.25H7C5.208 13.25 3.75 11.792 3.75 10V9C3.75 8.311 4.311 7.75 5 7.75H19C19.689 7.75 20.25 8.311 20.25 9V10C20.25 11.792 18.792 13.25 17 13.25H14C13.586 13.25 13.25 13.586 13.25 14C13.25 14.414 13.586 14.75 14 14.75H17C18.26 14.75 19.399 14.249 20.25 13.446V19C20.25 19.689 19.689 20.25 19 20.25Z" fill="white"/>
<path d="M13 16.75H11C10.035 16.75 9.25 15.965 9.25 15V12C9.25 11.035 10.035 10.25 11 10.25H13C13.965 10.25 14.75 11.035 14.75 12V15C14.75 15.965 13.965 16.75 13 16.75ZM11 11.75C10.862 11.75 10.75 11.862 10.75 12V15C10.75 15.138 10.862 15.25 11 15.25H13C13.138 15.25 13.25 15.138 13.25 15V12C13.25 11.862 13.138 11.75 13 11.75H11Z" fill="#00E6FF"/>
</svg>
