<svg width="64" height="64" viewBox="0 0 64 64" fill="none" xmlns="http://www.w3.org/2000/svg">
<path d="M32.005 16C30.7194 16.0002 29.4626 15.6192 28.3936 14.905C27.3245 14.1909 26.4912 13.1758 25.9991 11.9881C25.507 10.8004 25.3781 9.49347 25.6288 8.23253C25.8795 6.97159 26.4985 5.8133 27.4075 4.90416C28.3165 3.99502 29.4747 3.37586 30.7356 3.12497C31.9965 2.87409 33.3035 3.00275 34.4913 3.49469C35.679 3.98663 36.6943 4.81975 37.4085 5.88869C38.1228 6.95763 38.504 8.21438 38.504 9.5C38.5022 11.2233 37.8168 12.8754 36.5984 14.094C35.3799 15.3125 33.7283 15.998 32.005 16ZM45.5875 31.623C46.3825 30.0545 46.6691 28.2773 46.4075 26.5384C46.146 24.7995 45.3492 23.1853 44.128 21.92C43.3882 21.1545 42.5019 20.5458 41.5218 20.13C40.5418 19.7143 39.4881 19.5 38.4235 19.5C37.359 19.5 36.3053 19.7143 35.3253 20.13C34.3452 20.5458 33.4589 21.1545 32.719 21.92C32.5272 22.1055 32.2709 22.2092 32.004 22.2092C31.7372 22.2092 31.4808 22.1055 31.289 21.92C30.5492 21.1545 29.6629 20.5458 28.6828 20.13C27.7028 19.7143 26.6491 19.5 25.5845 19.5C24.52 19.5 23.4663 19.7143 22.4863 20.13C21.5062 20.5458 20.6199 21.1545 19.88 21.92C18.3585 23.4957 17.5082 25.6006 17.5082 27.791C17.5082 29.9814 18.3585 32.0863 19.88 33.662L21.97 35.8015C21.6237 35.7947 21.2796 35.7429 20.9465 35.6475C20.1871 35.4115 19.4019 35.2686 18.608 35.222L18.4495 35.0595C16.5658 33.1088 15.5129 30.5028 15.5129 27.791C15.5129 25.0792 16.5658 22.4732 18.4495 20.5225C20.2025 18.7119 22.5783 17.6357 25.0954 17.5119C27.6125 17.3881 30.0824 18.2261 32.0045 19.856C33.9265 18.2265 36.3962 17.3887 38.9129 17.5124C41.4297 17.6362 43.8052 18.7122 45.558 20.5225C47.027 22.0453 48 23.9775 48.3488 26.0644C48.6975 28.1513 48.4056 30.2949 47.5115 32.2125C46.8725 31.9842 46.2312 31.7877 45.5875 31.623Z" fill="#184DC1"/>
<path d="M0.141518 41.744C0.698517 40.468 2.61302 40.3635 3.25052 40.5395C3.32252 40.5595 3.48652 40.5815 3.65952 40.605C4.62952 40.735 6.64902 41.005 10.7285 43.0295C15.7475 45.5195 21.1375 47.9895 26.992 48.4555C28.5975 48.6026 30.2158 48.3978 31.7341 47.8554C33.2524 47.313 34.6341 46.4461 35.783 45.315C36.1485 44.6015 36.16 44.1915 36.0525 44.055C35.652 43.544 33.2765 43.247 28.3925 44.518C21.7675 46.353 18.349 43.0535 17.921 42.6045C16.648 41.4305 15.0755 39.7145 15.9065 38.256C16.6395 36.971 18.6915 37.0535 20.369 37.562C22.063 38.0735 23.894 37.7025 25.4615 37.2705C27.145 36.806 28.8305 36.167 30.46 35.5485C32.8252 34.5703 35.2745 33.8092 37.7775 33.2745C42.0405 32.4915 46.3525 33.362 50.594 35.8595C54.0591 37.8744 57.0052 40.6715 59.197 44.0275C63.6235 50.9265 64.2205 56.161 63.942 59.3385C63.9125 59.7168 63.764 60.0759 63.5177 60.3645C63.2713 60.653 62.9399 60.8561 62.571 60.9445C62.1886 61.0396 61.786 61.0126 61.4197 60.8671C61.0535 60.7216 60.742 60.4651 60.529 60.1335C60.1988 59.69 59.9745 59.1767 59.8735 58.633C59.849 58.5225 59.82 58.3915 59.7785 58.226C59.3185 56.3257 58.1449 54.6751 56.501 53.6165L56.366 53.5435C54.1645 52.3225 52.122 53.1825 47.711 55.2445C45.8395 56.1195 43.5105 57.2085 40.663 58.288C27.6595 62.745 18.558 57.31 12.843 52.836C8.10502 49.126 2.64302 45.431 2.62352 45.417C1.74352 44.875 -0.595482 43.4345 0.141518 41.744Z" fill="#184DC1"/>
</svg>
