<svg width="64" height="64" viewBox="0 0 64 64" fill="none" xmlns="http://www.w3.org/2000/svg">
<g clip-path="url(#clip0_0_120)">
<path d="M19.01 23.53H44.98L33.52 9.82V6.04H34.81C35.2132 6.04 35.5998 5.87986 35.8848 5.5948C36.1699 5.30975 36.33 4.92313 36.33 4.52C36.33 4.11687 36.1699 3.73025 35.8848 3.4452C35.5998 3.16014 35.2132 3 34.81 3H33.52V1.52C33.52 1.11687 33.3599 0.730253 33.0748 0.445198C32.7898 0.160142 32.4031 0 32 0C31.5969 0 31.2103 0.160142 30.9252 0.445198C30.6402 0.730253 30.48 1.11687 30.48 1.52V3H29.2C28.7969 3 28.4103 3.16014 28.1252 3.4452C27.8402 3.73025 27.68 4.11687 27.68 4.52C27.68 4.92313 27.8402 5.30975 28.1252 5.5948C28.4103 5.87986 28.7969 6.04 29.2 6.04H30.49V9.83L19.01 23.53ZM57.9 61.33H54.53V38.86C54.53 38.3 54.07 37.83 53.5 37.83L41.31 37.82V25.58H22.68V37.81L10.51 37.8C9.95002 37.8 9.48002 38.26 9.48002 38.83L9.46002 61.33H6.10002C5.36002 61.33 4.77002 61.93 4.77002 62.66C4.77002 63.4 5.36002 64 6.10002 64H57.9C58.64 64 59.23 63.4 59.23 62.67C59.23 61.93 58.64 61.33 57.9 61.33ZM19.02 57.49H14.1V52.57H19.02V57.49ZM19.02 46.87H14.1V41.95H19.02V46.87ZM27.61 33.24C27.61 30.82 29.58 28.85 32 28.85C34.41 28.85 36.38 30.82 36.38 33.24V37.82H34.33V33.24C34.33 32.6211 34.0849 32.0274 33.6482 31.5889C33.2115 31.1503 32.6189 30.9026 32 30.9C30.71 30.9 29.66 31.95 29.66 33.24V37.82H27.61V33.24ZM36.69 61.33H27.32V52.18C27.3453 50.9542 27.8501 49.7872 28.7259 48.9293C29.6018 48.0713 30.779 47.5908 32.005 47.5908C33.2311 47.5908 34.4083 48.0713 35.2841 48.9293C36.16 49.7872 36.6647 50.9542 36.69 52.18V61.33ZM49.9 57.49H44.99V52.57H49.9V57.49ZM49.9 46.87H44.99V41.95H49.9V46.87Z" fill="#184DC1"/>
</g>
<defs>
<clipPath id="clip0_0_120">
<rect width="64" height="64" fill="white"/>
</clipPath>
</defs>
</svg>
