<svg width="63" height="63" viewBox="0 0 63 63" fill="none" xmlns="http://www.w3.org/2000/svg">
<g clip-path="url(#clip0_0_105)">
<path fill-rule="evenodd" clip-rule="evenodd" d="M31.1324 10.7111C30.0426 10.7288 28.9706 10.8352 27.9252 11.0123C27.9784 11.0035 28.0227 10.9946 28.0758 10.9858C25.6483 13.0057 24.1156 17.2317 23.3714 22.2639C25.7458 21.8652 28.2442 21.6083 30.7603 21.502V10.72C30.8843 10.72 31.0083 10.7111 31.1324 10.7111ZM27.3139 11.1275C27.2253 11.1452 27.1456 11.1718 27.057 11.1895C27.1456 11.163 27.2253 11.1452 27.3139 11.1275ZM25.5952 11.5616C18.5519 13.6525 13.059 19.3846 11.2959 26.5697C13.7677 24.78 17.5153 23.4245 21.7944 22.5563C22.4235 18.1088 23.6638 14.1841 25.5774 11.5705L25.5952 11.5616ZM32.2487 21.4666C34.7382 21.4223 37.2277 21.5374 39.5843 21.821C38.8224 16.9837 37.2986 12.9437 34.9065 10.9858L34.9685 10.9946C33.9497 10.8263 32.9131 10.7288 31.85 10.7111C31.9829 10.7111 32.1158 10.72 32.2487 10.72V21.4666ZM41.1259 22.0247C45.2987 22.6715 48.9754 23.8586 51.4561 25.666C49.4804 18.9062 44.1647 13.5727 37.4226 11.5705C39.2654 14.0777 40.4791 17.7987 41.1259 22.0247ZM10.8884 28.7757C10.7998 29.4224 10.7466 30.0869 10.72 30.7602H21.316C21.2806 28.5187 21.378 26.295 21.5995 24.1599C16.7799 25.1078 12.7754 26.676 10.8884 28.7757ZM22.8399 30.7602H30.7603V23.1322C28.1644 23.2208 25.5863 23.4777 23.1677 23.8764C22.9196 26.0824 22.8133 28.4124 22.8399 30.7602ZM32.2487 30.7602H40.1691C40.2045 28.2795 40.0893 25.8077 39.8147 23.4865C37.4049 23.1853 34.8268 23.0613 32.2487 23.0967V30.7602ZM41.684 30.7602H52.28C52.2534 29.9008 52.1648 29.0503 52.032 28.2264C50.1094 25.9318 46.1315 24.4611 41.3474 23.6992C41.6132 25.9761 41.7195 28.3593 41.684 30.7602ZM10.72 32.2486C10.7466 32.9131 10.7998 33.5775 10.8884 34.2243C12.8286 36.3683 17.0014 37.9984 22.0071 38.9818C21.6615 36.8024 21.4489 34.5344 21.3515 32.2486H10.72ZM23.5486 39.2565C25.8521 39.6374 28.2973 39.8855 30.7603 39.9918V32.2486H22.8842C22.9727 34.6318 23.1942 37.0062 23.5486 39.2565ZM32.2487 40.0361C34.6673 40.0804 37.086 39.9918 39.3628 39.7349C39.7704 37.3517 40.0273 34.8001 40.1336 32.2486H32.2487V40.0361ZM40.9044 39.54C45.8657 38.8312 50.0208 37.3251 52.0142 34.9153C52.156 34.0471 52.2534 33.1523 52.28 32.2486H41.6486C41.5511 34.7293 41.2942 37.2011 40.9044 39.54ZM11.3136 36.51C13.1653 43.9432 19.0125 49.8082 26.4457 51.6775C24.5497 49.0728 23.1322 45.0683 22.2728 40.5145C17.8077 39.6906 13.874 38.3439 11.3136 36.51ZM28.6606 52.1028C29.4756 52.2091 30.2996 52.28 31.1324 52.2888C31.0083 52.2888 30.8843 52.2888 30.7603 52.28V41.4005C28.4036 41.3207 26.0559 41.1081 23.8144 40.7715C24.7712 45.8657 26.428 50.1271 28.6606 52.1028ZM31.8588 52.2888C32.6916 52.28 33.5067 52.2179 34.3129 52.1028C36.5012 50.1714 38.1402 46.0429 39.1236 41.0815C36.8999 41.3385 34.5787 41.4536 32.2487 41.4271V52.28C32.1158 52.2888 31.9829 52.2888 31.8588 52.2888ZM36.4746 51.6952C43.7306 49.9056 49.4893 44.3064 51.5181 37.1479C48.94 39.0084 45.0595 40.231 40.6563 40.8866C39.7881 45.2809 38.406 49.1437 36.5544 51.6775L36.4746 51.6952Z" fill="#184DC1"/>
<path fill-rule="evenodd" clip-rule="evenodd" d="M28.0758 10.9857C27.2253 11.1275 26.3925 11.3224 25.5774 11.5705C19.234 20.2173 20.3149 43.2787 26.4456 51.6775C27.1721 51.8547 27.9075 51.9964 28.6605 52.1027C21.6615 45.9188 20.3769 17.3734 28.0758 10.9857ZM34.3129 52.1027C35.0748 52.0053 35.8279 51.8547 36.5544 51.6775C42.6851 43.2787 43.766 20.2173 37.4226 11.5616C36.5987 11.3224 35.7659 11.1275 34.9065 10.9857C42.7029 17.3646 41.2942 45.9277 34.3129 52.1027ZM31.5044 10.7022C31.2475 10.7022 31.0083 10.7111 30.7602 10.7199V52.2799C31.2741 52.2976 31.7259 52.2976 32.2486 52.2799V10.7199C32.0006 10.7111 31.7525 10.7022 31.5044 10.7022Z" fill="#D6E3FF"/>
<path fill-rule="evenodd" clip-rule="evenodd" d="M11.2959 26.5697C11.1187 27.2873 10.9858 28.0227 10.8883 28.7757C17.0368 21.945 45.6974 20.6781 52.0408 28.2264C51.899 27.3493 51.7041 26.4988 51.4649 25.666C42.8092 19.3758 19.6681 20.5009 11.2959 26.5697ZM10.8795 34.2243C10.9858 34.9951 11.1276 35.757 11.3136 36.5101C19.7213 42.5346 42.9244 43.3585 51.5181 37.148C51.7218 36.4215 51.8902 35.6773 52.0142 34.9154C45.6265 42.6409 17.028 41.0196 10.8795 34.2243ZM10.72 30.7603C10.7023 31.283 10.7023 31.7259 10.72 32.2487H52.28C52.2977 31.7259 52.2977 31.283 52.28 30.7603H10.72Z" fill="#D6E3FF"/>
<path fill-rule="evenodd" clip-rule="evenodd" d="M27.9429 3.50848C27.8986 3.50848 27.8543 3.51734 27.81 3.51734C22.9018 4.12865 18.2506 6.09546 14.3258 9.10769C13.8563 9.47093 13.7854 10.162 14.1841 10.6049C15.0612 11.6061 15.008 13.1299 14.0689 14.069C13.1298 15.0081 11.606 15.0524 10.6048 14.1753C10.1619 13.7855 9.47082 13.8564 9.10758 14.3259C6.09534 18.2507 4.16397 22.9108 3.51722 27.8101C3.44635 28.4037 3.88932 28.9353 4.48291 28.9707C5.81184 29.0593 6.8484 30.1668 6.8484 31.5045C6.8484 32.8335 5.80298 33.9409 4.48291 34.0295C3.88046 34.0649 3.44635 34.5965 3.51722 35.1901C4.15511 40.0983 6.09534 44.7495 9.10758 48.6743C9.47082 49.1438 10.1619 49.2147 10.6048 48.8249C11.606 47.9478 13.1298 48.001 14.0689 48.9401C15.008 49.8792 15.0612 51.3942 14.1841 52.3953C13.7854 52.8383 13.8563 53.5293 14.3258 53.8925C18.2506 56.9048 22.9107 58.8361 27.81 59.4829C28.4036 59.5626 28.9352 59.1197 28.9795 58.5261C29.0592 57.1971 30.1666 56.1517 31.5044 56.1517C32.8334 56.1517 33.9408 57.1971 34.0294 58.5261C34.0648 59.1197 34.5964 59.5538 35.19 59.4829C40.0893 58.845 44.7494 56.9048 48.6742 53.8925C49.1437 53.5293 49.2146 52.8383 48.8248 52.3953C47.9477 51.3942 47.992 49.8792 48.9311 48.9312C49.8702 47.9921 51.394 47.9389 52.3952 48.816C52.8381 49.2147 53.5292 49.1438 53.8924 48.6743C56.9047 44.7495 58.8449 40.0894 59.4828 35.1901C59.5537 34.5965 59.1195 34.0649 58.5171 34.0295C57.197 33.9409 56.1516 32.8335 56.1516 31.4957C56.1516 30.1668 57.197 29.0593 58.526 28.9707C59.1195 28.9353 59.5537 28.4037 59.4828 27.8101C58.8449 22.9108 56.9047 18.2507 53.8924 14.3259C53.5292 13.8564 52.8381 13.7855 52.3952 14.1842C51.394 15.0613 49.8791 15.0081 48.9311 14.069C47.992 13.1299 47.9477 11.6061 48.8159 10.6049C49.2146 10.162 49.1437 9.47093 48.6742 9.10769C44.7494 6.09546 40.0893 4.16409 35.19 3.5262C34.5964 3.44646 34.0648 3.88944 34.0294 4.48303C33.9408 5.81195 32.8334 6.84852 31.4956 6.84852C30.1666 6.84852 29.0592 5.80309 28.9706 4.48303C28.9352 3.93373 28.4833 3.50848 27.9429 3.50848ZM46.6365 10.1708C45.7328 11.9339 46.0606 14.1133 47.4693 15.5308C48.8868 16.9484 51.0662 17.2673 52.8293 16.3636C55.1062 19.5619 56.63 23.2475 57.2856 27.1191C55.3985 27.7215 54.0873 29.4934 54.0873 31.4957C54.0873 33.5068 55.3985 35.2787 57.2856 35.8811C56.63 39.7528 55.1062 43.4383 52.8293 46.6366C51.0662 45.7241 48.8868 46.0519 47.4693 47.4694C46.0518 48.8869 45.7328 51.0664 46.6365 52.8294C43.4382 55.1063 39.7526 56.6301 35.881 57.2857C35.2786 55.3987 33.5067 54.0874 31.5044 54.0874C29.4933 54.0874 27.7214 55.3987 27.119 57.2857C23.2474 56.6301 19.5618 55.1063 16.3635 52.8294C17.2761 51.0664 16.9482 48.8869 15.5307 47.4694C14.1132 46.0519 11.9338 45.7241 10.1707 46.6366C7.89382 43.4383 6.36999 39.7528 5.71438 35.8811C7.60146 35.2787 8.91267 33.5068 8.91267 31.4957C8.91267 29.4934 7.60146 27.7215 5.71438 27.1191C6.36999 23.2475 7.89382 19.5619 10.1707 16.3636C11.9338 17.2673 14.1132 16.9484 15.5307 15.5308C16.9482 14.1133 17.2761 11.9339 16.3635 10.1708C19.5618 7.89394 23.2474 6.3701 27.119 5.7145C27.7214 7.60157 29.4933 8.91278 31.5044 8.91278C33.5067 8.91278 35.2786 7.60157 35.881 5.7145C39.7526 6.3701 43.4382 7.89394 46.6365 10.1708Z" fill="#C2E6F7"/>
<path fill-rule="evenodd" clip-rule="evenodd" d="M31.5045 54.3798C29.1301 54.3798 27.1987 56.3111 27.1987 58.6855C27.1987 61.0598 29.1301 62.9912 31.5045 62.9912C33.8699 62.9912 35.8013 61.0598 35.8013 58.6855C35.8013 56.3111 33.8699 54.3798 31.5045 54.3798Z" fill="#184DC1"/>
<path fill-rule="evenodd" clip-rule="evenodd" d="M50.7207 46.4238C48.3463 46.4238 46.4238 48.3463 46.4238 50.7206C46.4238 53.1039 48.3463 55.0264 50.7207 55.0264C51.8724 55.0264 52.9533 54.5834 53.7684 53.7683C55.4428 52.085 55.4428 49.3563 53.7684 47.6818C52.9533 46.8668 51.8724 46.4238 50.7207 46.4238Z" fill="#184DC1"/>
<path fill-rule="evenodd" clip-rule="evenodd" d="M58.6854 27.1987C56.3111 27.1987 54.3885 29.1301 54.3885 31.4955C54.3885 33.8699 56.3111 35.8013 58.6854 35.8013C61.0598 35.8013 62.9911 33.8699 62.9911 31.4955C62.9911 29.1301 61.0598 27.1987 58.6854 27.1987Z" fill="#184DC1"/>
<path fill-rule="evenodd" clip-rule="evenodd" d="M50.7207 7.97355C49.5779 7.97355 48.497 8.42538 47.6819 9.2316C45.9986 10.9149 45.9986 13.6436 47.6819 15.3181C49.3652 17.0014 52.0851 17.0014 53.7684 15.3181C55.4428 13.6436 55.4428 10.9149 53.7684 9.2316C52.9533 8.41652 51.8725 7.97355 50.7207 7.97355Z" fill="#184DC1"/>
<path fill-rule="evenodd" clip-rule="evenodd" d="M31.5045 0.00886154C29.1301 0.00886154 27.1987 1.94024 27.1987 4.31459C27.1987 6.68894 29.1301 8.61145 31.5045 8.61145C33.8699 8.61145 35.8013 6.68894 35.8013 4.31459C35.8013 1.94024 33.8699 0.00886154 31.5045 0.00886154Z" fill="#184DC1"/>
<path fill-rule="evenodd" clip-rule="evenodd" d="M12.2793 7.97355C11.1275 7.97355 10.0467 8.42538 9.23161 9.2316C7.55716 10.9149 7.55716 13.6436 9.23161 15.3181C10.9149 17.0014 13.6348 17.0014 15.3181 15.3181C17.0014 13.6436 17.0014 10.9149 15.3181 9.2316C14.503 8.41652 13.4222 7.97355 12.2793 7.97355Z" fill="#184DC1"/>
<path fill-rule="evenodd" clip-rule="evenodd" d="M4.31457 27.1987C1.94022 27.1987 0.0088501 29.1301 0.0088501 31.4955C0.0088501 33.8699 1.94022 35.8013 4.31457 35.8013C6.68892 35.8013 8.6203 33.8699 8.6203 31.4955C8.6203 29.1301 6.68892 27.1987 4.31457 27.1987Z" fill="#184DC1"/>
<path fill-rule="evenodd" clip-rule="evenodd" d="M12.2793 46.4238C11.1275 46.4238 10.0467 46.8668 9.23161 47.6818C7.55716 49.3563 7.55716 52.085 9.23161 53.7683C10.9149 55.4428 13.6436 55.4428 15.3181 53.7683C17.0014 52.085 17.0014 49.3652 15.3181 47.6818C14.503 46.8668 13.4222 46.4238 12.2793 46.4238Z" fill="#184DC1"/>
</g>
<defs>
<clipPath id="clip0_0_105">
<rect width="63" height="63" fill="white" transform="matrix(1 0 0 -1 0 63)"/>
</clipPath>
</defs>
</svg>
