<svg width="36" height="36" viewBox="0 0 36 36" fill="none" xmlns="http://www.w3.org/2000/svg">
<g clip-path="url(#clip0_0_54)">
<path d="M18 36C14.4399 36 10.9598 34.9443 7.99974 32.9665C5.03965 30.9886 2.73255 28.1774 1.37017 24.8883C0.00779343 21.5992 -0.348663 17.98 0.345867 14.4884C1.0404 10.9967 2.75473 7.78943 5.27208 5.27209C7.78943 2.75474 10.9967 1.04041 14.4884 0.345873C17.98 -0.348661 21.5992 0.00779915 24.8883 1.37018C28.1774 2.73255 30.9886 5.03966 32.9665 7.99974C34.9443 10.9598 36 14.4399 36 18C36 22.7739 34.1036 27.3523 30.7279 30.7279C27.3523 34.1036 22.7739 36 18 36ZM23.775 17.475L15.525 9.22501C15.4202 9.12223 15.2875 9.05247 15.1434 9.02439C14.9993 8.99631 14.8501 9.01114 14.7144 9.06703C14.5786 9.12293 14.4623 9.21744 14.3797 9.33885C14.2972 9.46025 14.2521 9.60321 14.25 9.75001V12C14.2528 12.1978 14.3337 12.3865 14.475 12.525L19.935 18L14.46 23.475C14.3187 23.6135 14.2378 23.8022 14.235 24V26.25C14.2371 26.3968 14.2822 26.5398 14.3647 26.6612C14.4473 26.7826 14.5636 26.8771 14.6994 26.933C14.8351 26.9889 14.9843 27.0037 15.1284 26.9756C15.2725 26.9475 15.4052 26.8778 15.51 26.775L23.76 18.525C23.8994 18.3868 23.9791 18.1994 23.9819 18.0031C23.9847 17.8068 23.9104 17.6172 23.775 17.475Z" fill="#C2C2C2"/>
</g>
<defs>
<clipPath id="clip0_0_54">
<rect width="36" height="36" fill="white" transform="matrix(-1 0 0 1 36 0)"/>
</clipPath>
</defs>
</svg>
