<svg width="36" height="36" viewBox="0 0 36 36" fill="none" xmlns="http://www.w3.org/2000/svg">
<g clip-path="url(#clip0_0_52)">
<path d="M18 36C21.5601 36 25.0402 34.9443 28.0003 32.9665C30.9603 30.9886 33.2675 28.1774 34.6298 24.8883C35.9922 21.5992 36.3487 17.98 35.6541 14.4884C34.9596 10.9967 33.2453 7.78943 30.7279 5.27209C28.2106 2.75474 25.0033 1.04041 21.5116 0.345873C18.02 -0.348661 14.4008 0.00779915 11.1117 1.37018C7.82263 2.73255 5.01141 5.03966 3.03355 7.99974C1.05568 10.9598 0 14.4399 0 18C0 22.7739 1.89642 27.3523 5.27208 30.7279C8.64773 34.1036 13.2261 36 18 36ZM12.225 17.475L20.475 9.22501C20.5798 9.12223 20.7125 9.05247 20.8566 9.02439C21.0007 8.99631 21.1499 9.01114 21.2856 9.06703C21.4214 9.12293 21.5377 9.21744 21.6203 9.33885C21.7028 9.46025 21.7479 9.60321 21.75 9.75001V12C21.7472 12.1978 21.6663 12.3865 21.525 12.525L16.065 18L21.54 23.475C21.6813 23.6135 21.7622 23.8022 21.765 24V26.25C21.7629 26.3968 21.7178 26.5398 21.6353 26.6612C21.5527 26.7826 21.4364 26.8771 21.3006 26.933C21.1649 26.9889 21.0157 27.0037 20.8716 26.9756C20.7275 26.9475 20.5948 26.8778 20.49 26.775L12.24 18.525C12.1006 18.3868 12.0209 18.1994 12.0181 18.0031C12.0153 17.8068 12.0896 17.6172 12.225 17.475Z" fill="#C2C2C2"/>
</g>
<defs>
<clipPath id="clip0_0_52">
<rect width="36" height="36" fill="white"/>
</clipPath>
</defs>
</svg>
